<?xml version="1.0" encoding="utf-8"?>
<!-- Generator: Adobe Illustrator 25.2.1, SVG Export Plug-In . SVG Version: 6.00 Build 0)  -->
<svg version="1.1" id="camembert_1_" xmlns="http://www.w3.org/2000/svg" xmlns:xlink="http://www.w3.org/1999/xlink" x="0px"
	 y="0px" viewBox="0 0 160.3 152" style="enable-background:new 0 0 160.3 152;" xml:space="preserve">
<style type="text/css">
	.st0{fill:#356A94;}
	.st1{fill:#4E4E4D;}
	.st2{opacity:0.9;fill:#4E4E4D;enable-background:new    ;}
	.st3{opacity:0.8;fill:#4E4E4D;enable-background:new    ;}
	.st4{opacity:0.7;fill:#4E4E4D;enable-background:new    ;}
	.st5{opacity:0.6;fill:#4E4E4D;enable-background:new    ;}
	.st6{opacity:0.5;fill:#4E4E4D;enable-background:new    ;}
	.st7{opacity:0.4;fill:#4E4E4D;enable-background:new    ;}
	.st8{opacity:0.3;fill:#4E4E4D;enable-background:new    ;}
	.st9{opacity:0.2;fill:#4E4E4D;enable-background:new    ;}
	.st10{opacity:0.1;fill:#4E4E4D;enable-background:new    ;}
	.st11{opacity:0.5;}
	.st12{opacity:0.45;fill:#E0605B;enable-background:new    ;}
</style>
<polygon id="Rond_x5F_Bleu_1_" class="st0" points="106.1,67.4 96.1,53.8 80.1,48.5 64,53.8 54,67.4 54,84.4 64,98 80.1,103.3 
	96.1,98 106.1,84.4 "/>
<g id="Toile_arraigné_1_">
	<path class="st1" d="M104.9,152.2H55.4l-0.2-0.1l-39.9-29L0,75.9l15.3-47.1l0.2-0.1l39.9-29h49.5l0.2,0.1l39.9,29l15.3,47.1
		L145,123L104.9,152.2z M55.8,150.8h48.7l39.4-28.6l15-46.3l-15-46.3L104.5,1H55.8L16.4,29.6l-15,46.3l15,46.3L55.8,150.8z"/>
	<path class="st2" d="M102.6,145.1h-45l-0.2-0.1l-36.2-26.3l-0.1-0.2L7.3,75.9l0.1-0.2l13.8-42.6l0.2-0.1L57.6,6.7h45l0.2,0.1
		L139,33.1l0.1,0.2l13.8,42.6l-0.1,0.2L139,118.7L102.6,145.1z M58.1,143.8h44.1l35.7-25.9l13.6-42l-13.6-42L102.2,8H58.1L22.4,34
		L8.8,76l13.6,42L58.1,143.8z"/>
	<path class="st3" d="M100.3,138.1H59.9l-0.1-0.1l-32.5-23.6l-0.1-0.2L14.7,75.9l0.1-0.2l12.4-38.2l0.2-0.1l32.5-23.6h40.4l0.2,0.1
		L133,37.5l0.1,0.2l12.4,38.2l-0.1,0.2L133,114.3L100.3,138.1z M60.3,136.8h39.6l32-23.3l12.2-37.6l-12.2-37.6L99.9,15H60.3
		l-32,23.3L16.1,75.9l12.2,37.6L60.3,136.8z"/>
	<path class="st4" d="M98.1,131.1H62.2L62,131l-28.8-21L22.1,75.9l11.1-34.1l0.2-0.1l28.8-21h35.9l29,21.1l11.1,34.1L127.1,110
		L98.1,131.1z M62.6,129.8h35l28.3-20.6l10.9-33.3L126,42.6L97.6,22h-35L34.3,42.6L23.5,75.9l10.8,33.3L62.6,129.8z"/>
	<path class="st5" d="M95.8,124.1H64.5l-0.2-0.1l-25.2-18.3l-9.7-29.8l9.7-29.8l0.2-0.1l25.2-18.3h31.3l0.2,0.1l25.2,18.3l9.7,29.8
		l-9.7,29.8L95.8,124.1z M64.9,122.8h30.5l24.7-17.9l9.4-29l-9.4-29L95.4,29H64.9L40.2,46.9l-9.4,29l9.4,29L64.9,122.8z"/>
	<path class="st6" d="M93.5,117.1H66.8l-0.2-0.1l-21.5-15.6l-0.1-0.2L36.8,76l8.3-25.4l21.7-15.8h26.7l21.6,15.7l0.1,0.2l8.2,25.2
		l-8.3,25.4l-0.2,0.1L93.5,117.1z M67.2,115.8h25.9l21-15.2l8-24.7l-8-24.7L93.1,36H67.2l-21,15.2l-8,24.7l8,24.7L67.2,115.8z"/>
	<path class="st7" d="M91.2,110.1H69L51.1,97l-6.9-21.1l6.9-21.1l17.9-13h22.2l17.9,13l0.1,0.2l6.8,20.9L109.2,97L91.2,110.1z
		 M69.4,108.8h21.4l17.3-12.6l6.6-20.3l-6.6-20.3L90.8,43H69.4L52.1,55.6l-6.6,20.3l6.6,20.3L69.4,108.8z"/>
	<path class="st8" d="M88.9,103H71.3L57.1,92.7l-5.4-16.8l5.4-16.8l14.3-10.4H89l14.3,10.4l5.4,16.8l-5.4,16.8L88.9,103z
		 M71.7,101.8h16.8l13.6-9.9l5.2-16l-5.2-16L88.5,50H71.7l-13.6,9.9l-5.2,16l5.2,16L71.7,101.8z"/>
	<path class="st9" d="M86.7,96H73.6L63,88.3l-4-12.4l4-12.4l10.6-7.7h13.1l10.6,7.7l4,12.4l-4,12.4L86.7,96z M74,94.8h12.3l9.9-7.2
		l3.8-11.7l-3.8-11.7L86.3,57H74l-9.9,7.2l-3.8,11.7l3.8,11.7L74,94.8z"/>
	<path class="st10" d="M84.4,89h-8.5L69,84l-2.6-8.1l2.6-8.1l6.9-5h8.5l6.9,5l2.6,8.1L91.3,84L84.4,89z M76.3,87.8H84l6.3-4.5
		l2.4-7.3l-2.4-7.3L84,64.2h-7.7l-6.2,4.5L67.7,76l2.4,7.3L76.3,87.8z"/>
</g>
<g id="Toile_x5F_dessus_1_" class="st11">
	<rect x="80" y="-3.5" transform="matrix(0.9511 -0.309 0.309 0.9511 -19.5446 28.4853)" class="st1" width="0.3" height="158.9"/>
	
		<rect x="0.7" y="75.8" transform="matrix(0.8077 -0.5896 0.5896 0.8077 -29.353 61.8647)" class="st1" width="158.9" height="0.3"/>
	<rect x="0.7" y="75.8" class="st1" width="158.9" height="0.3"/>
	
		<rect x="0.7" y="75.8" transform="matrix(0.3056 -0.9522 0.9522 0.3056 -16.6112 129.0379)" class="st1" width="158.9" height="0.3"/>
	<rect x="80" y="-3.5" transform="matrix(0.5878 -0.809 0.809 0.5878 -28.3837 96.1504)" class="st1" width="0.3" height="158.9"/>
</g>
<polygon id="Rond_x5F_rouge" class="st12" points="151.4,49.1 122.2,12.4 77,-0.1 33.1,16.3 7.2,55.4 9.3,102.3 38.5,139 
	83.7,151.5 127.6,135.1 153.5,95.9 "/>
</svg>
