<?xml version="1.0" encoding="utf-8"?>
<!-- Generator: Adobe Illustrator 25.2.1, SVG Export Plug-In . SVG Version: 6.00 Build 0)  -->
<svg version="1.1" id="camembert_1_" xmlns="http://www.w3.org/2000/svg" xmlns:xlink="http://www.w3.org/1999/xlink" x="0px"
	 y="0px" viewBox="0 0 232 152" style="enable-background:new 0 0 232 152;" xml:space="preserve">
<style type="text/css">
	.st0{fill:#356A94;}
	.st1{fill:#4E4E4D;}
	.st2{opacity:0.9;fill:#4E4E4D;}
	.st3{opacity:0.8;fill:#4E4E4D;}
	.st4{opacity:0.7;fill:#4E4E4D;}
	.st5{opacity:0.6;fill:#4E4E4D;}
	.st6{opacity:0.5;fill:#4E4E4D;}
	.st7{opacity:0.4;fill:#4E4E4D;}
	.st8{opacity:0.3;fill:#4E4E4D;}
	.st9{opacity:0.2;fill:#4E4E4D;}
	.st10{opacity:0.1;fill:#4E4E4D;}
	.st11{opacity:0.5;}
	.st12{opacity:0.45;fill:#E0605B;}
</style>
<polygon id="Rond_x5F_Bleu_1_" class="st0" points="146.3,67.4 136.3,53.8 120.3,48.5 104.2,53.8 94.2,67.4 94.2,84.4 104.2,98 
	120.3,103.3 136.3,98 146.3,84.4 "/>
<g id="Toile_arraigné_1_">
	<path class="st1" d="M145.1,152.2H95.6l-0.2-0.1l-39.9-29L40.2,75.9l15.3-47.1l0.2-0.1l39.9-29h49.5l0.2,0.1l39.9,29l15.3,47.1
		L185.2,123L145.1,152.2z M96,150.8h48.7l39.4-28.6l15-46.3l-15-46.3L144.7,1H96L56.6,29.6l-15,46.3l15,46.3L96,150.8z"/>
	<path class="st2" d="M142.8,145.1h-45l-0.2-0.1l-36.2-26.3l-0.1-0.2L47.5,75.9l0.1-0.2l13.8-42.6l0.2-0.1L97.8,6.7h45l0.2,0.1
		l36.2,26.3l0.1,0.2l13.8,42.6l-0.1,0.2l-13.8,42.6L142.8,145.1z M98.3,143.8h44.1l35.7-25.9l13.6-42l-13.6-42L142.4,8H98.3L62.6,34
		l-13.6,42l13.6,42L98.3,143.8z"/>
	<path class="st3" d="M140.5,138.1h-40.4L100,138l-32.5-23.6l-0.1-0.2L54.9,75.9l0.1-0.2l12.4-38.2l0.2-0.1l32.5-23.6h40.4l0.2,0.1
		l32.5,23.6l0.1,0.2l12.4,38.2l-0.1,0.2l-12.4,38.2L140.5,138.1z M100.5,136.8h39.6l32-23.3l12.2-37.6l-12.2-37.6l-32-23.3h-39.6
		l-32,23.3L56.3,75.9l12.2,37.6L100.5,136.8z"/>
	<path class="st4" d="M138.3,131.1h-35.9l-0.2-0.1l-28.8-21L62.3,75.9l11.1-34.1l0.2-0.1l28.8-21h35.9l29,21.1l11.1,34.1L167.3,110
		L138.3,131.1z M102.8,129.8h35l28.3-20.6L177,75.9l-10.8-33.3L137.8,22h-35L74.5,42.6L63.7,75.9l10.8,33.3L102.8,129.8z"/>
	<path class="st5" d="M136,124.1h-31.3l-0.2-0.1l-25.2-18.3l-9.7-29.8l9.7-29.8l0.2-0.1l25.2-18.3H136l0.2,0.1l25.2,18.3l9.7,29.8
		l-9.7,29.8L136,124.1z M105.1,122.8h30.5l24.7-17.9l9.4-29l-9.4-29L135.6,29h-30.5L80.4,46.9l-9.4,29l9.4,29L105.1,122.8z"/>
	<path class="st6" d="M133.7,117.1H107l-0.2-0.1l-21.5-15.6l-0.1-0.2l-8.2-25.2l8.3-25.4L107,34.8h26.7l21.6,15.7l0.1,0.2l8.2,25.2
		l-8.3,25.4l-0.2,0.1L133.7,117.1z M107.4,115.8h25.9l21-15.2l8-24.7l-8-24.7l-21-15.2h-25.9l-21,15.2l-8,24.7l8,24.7L107.4,115.8z"
		/>
	<path class="st7" d="M131.4,110.1h-22.2L91.3,97l-6.9-21.1l6.9-21.1l17.9-13h22.2l17.9,13l0.1,0.2l6.8,20.9L149.4,97L131.4,110.1z
		 M109.6,108.8H131l17.3-12.6l6.6-20.3l-6.6-20.3L131,43h-21.4L92.3,55.6l-6.6,20.3l6.6,20.3L109.6,108.8z"/>
	<path class="st8" d="M129.1,103h-17.6L97.3,92.7l-5.4-16.8l5.4-16.8l14.3-10.4h17.6l14.3,10.4l5.4,16.8l-5.4,16.8L129.1,103z
		 M111.9,101.8h16.8l13.6-9.9l5.2-16l-5.2-16L128.7,50h-16.8l-13.6,9.9l-5.2,16l5.2,16L111.9,101.8z"/>
	<path class="st9" d="M126.9,96h-13.1l-10.6-7.7l-4-12.4l4-12.4l10.6-7.7h13.1l10.6,7.7l4,12.4l-4,12.4L126.9,96z M114.2,94.8h12.3
		l9.9-7.2l3.8-11.7l-3.8-11.7l-9.9-7.2h-12.3l-9.9,7.2l-3.8,11.7l3.8,11.7L114.2,94.8z"/>
	<path class="st10" d="M124.6,89h-8.5l-6.9-5l-2.6-8.1l2.6-8.1l6.9-5h8.5l6.9,5l2.6,8.1l-2.6,8.1L124.6,89z M116.5,87.8h7.7l6.3-4.5
		l2.4-7.3l-2.4-7.3l-6.3-4.5h-7.7l-6.2,4.5l-2.4,7.3l2.4,7.3L116.5,87.8z"/>
</g>
<g id="Toile_x5F_dessus_1_" class="st11">
	
		<rect x="120.2" y="-3.5" transform="matrix(0.9511 -0.309 0.309 0.9511 -17.5726 40.9006)" class="st1" width="0.3" height="158.9"/>
	
		<rect x="40.9" y="75.8" transform="matrix(0.8077 -0.5896 0.5896 0.8077 -21.6253 85.5438)" class="st1" width="158.9" height="0.3"/>
	<rect x="40.9" y="75.8" class="st1" width="158.9" height="0.3"/>
	
		<rect x="40.9" y="75.8" transform="matrix(0.3056 -0.9522 0.9522 0.3056 11.263 167.2944)" class="st1" width="158.9" height="0.3"/>
	
		<rect x="120.2" y="-3.5" transform="matrix(0.5878 -0.809 0.809 0.5878 -11.8217 128.6488)" class="st1" width="0.3" height="158.9"/>
</g>
<polygon id="Rond_x5F_rouge" class="st12" points="191.6,49.1 162.4,12.4 117.2,-0.1 73.3,16.3 47.4,55.4 49.5,102.3 78.7,139 
	123.9,151.5 167.8,135.1 193.7,95.9 "/>
</svg>
