<?xml version="1.0" encoding="utf-8"?>
<!-- Generator: Adobe Illustrator 25.2.1, SVG Export Plug-In . SVG Version: 6.00 Build 0)  -->
<svg version="1.1" id="Logo" xmlns="http://www.w3.org/2000/svg" xmlns:xlink="http://www.w3.org/1999/xlink" x="0px" y="0px"
	 viewBox="0 0 244 34" enable-background="new 0 0 244 34" xml:space="preserve">
<polygon fill="#E0605B" points="20,12.8 20.2,11.4 17.7,11.4 19.4,9.7 18.4,8.8 15.7,11.4 8.6,11.4 8.3,12.8 14.4,12.8 11.8,15.3 
	7.9,15.3 7.6,16.6 10.4,16.6 8.1,18.9 9.1,19.9 12.4,16.6 19.3,16.6 19.6,15.3 13.8,15.3 16.3,12.8 "/>
<path fill="#356A94" d="M13.9,33.8c-0.9,0-1.8-0.5-2.2-1.3l-1.9-3.3L4,24.2L0.4,18v-7.2L4,4.4l6.3-3.6h7.2l6.3,3.6l3.6,6.3V18
	l-3.6,6.2L18,29.2l-1.9,3.3C15.7,33.4,14.9,33.8,13.9,33.8z M5.4,23l5.9,5.1l2,3.6c0.2,0.3,0.5,0.4,0.6,0.4s0.4,0,0.6-0.4l2-3.6
	l5.9-5.1l3.2-5.5v-6.3l-3.1-5.4l-5.4-3.1h-6.3L5.4,5.8l-3.1,5.4v6.3L5.4,23z"/>
<g>
	<path fill="#4E4E4D" d="M41.5,21.1c-0.6,0.9-1.3,1.4-2.2,1.4c-1.3,0-2-0.6-2-1.9c0-0.4,0.1-1.2,0.3-2.3c0.4-1.8,1-4.5,1.3-5.8h-1.7
		l0.1-0.6h3.6l-1.7,8.1c-0.3,1.2-0.1,1.6,0.6,1.6c0.5,0,0.8-0.3,1.3-1L41.5,21.1z M39,8.7c0-0.8,0.5-1.5,1.4-1.5
		c0.7,0,1.1,0.3,1.1,1.1c0,0.8-0.5,1.5-1.4,1.5C39.3,9.8,39,9.3,39,8.7z"/>
	<path fill="#4E4E4D" d="M53.8,21.2c-0.5,0.7-1.3,1.3-2.3,1.3c-1.3,0-2-0.7-2-1.8c0-1.5,1-4.3,1.4-6.3c0.3-1.4,0-1.8-0.7-1.8
		c-1.7,0-3.5,2.5-4.2,4.9c-0.4,1.4-0.7,3-0.8,4.7c-0.7,0-1.5,0.1-2.1,0.2l0.8-3.9l0.7-6H43L43,12h3.6l-0.9,3.8l0.1,0.1
		c1-2,2.5-4.1,4.7-4.1c1.9,0,2.7,1.3,2.1,3.6c-0.4,1.6-0.9,3.3-1.2,4.6c-0.1,0.3-0.2,0.7-0.2,1.1c0,0.5,0.2,0.7,0.6,0.7
		c0.6,0,1-0.4,1.4-0.9L53.8,21.2z"/>
	<path fill="#4E4E4D" d="M63.4,18.9c-0.6,2.3-2.4,3.6-4.7,3.6c-2.4,0-3.8-1.5-3.8-4.1c0-3.4,2.3-6.7,5.7-6.7c1.7,0,2.8,0.8,2.8,2.4
		c0,2.3-2.2,2.9-3.9,3.3c-0.7,0.2-1.9,0.3-2.5,0.3v0.6c0,2.3,0.7,3.3,2.3,3.3c1.2,0,2.7-0.6,3.5-3L63.4,18.9z M58.3,17.1
		c1.9-0.4,3.3-1.1,3.3-3.1c0-1.2-0.5-1.7-1.3-1.7c-1.3,0-2.8,1.6-3.2,4.9C57.5,17.2,57.9,17.2,58.3,17.1z M61.3,6.5l0.8-0.2
		C62.6,6.3,63,6.5,63,7c0,0.4-0.2,0.7-0.6,1l-2.8,2.6l-0.3-0.2L61.3,6.5z"/>
	<path fill="#4E4E4D" d="M65.9,25.8c-0.3,0.6,0,1.3,1.3,1.3c2.1,0,2.9-1.3,3.7-4c0.2-0.7,0.6-2.7,0.9-3.5l-0.1,0
		c-0.7,1.5-2,2.5-3.7,2.5c-2.1,0-3.2-1.4-3.2-3.7c0-2.9,1.7-6.6,5.2-6.6c1.3,0,2.1,0.5,2.7,1.7l0.4-1.5c0.6,0,1.1,0,1.8-0.1
		c-0.6,2.7-1.4,7.7-1.9,10.4c-0.8,4-3,5.4-5.8,5.4c-1.9,0-3.1-0.7-3.1-2c0-0.9,0.6-1.6,1.6-1.6c0.7,0,1.4,0.5,1.2,1.7L65.9,25.8z
		 M72.2,15.2c0-2-0.8-2.7-2-2.7c-2.6,0-3.3,3.1-3.3,5.9c0,1.8,0.4,2.8,1.6,2.8C70.8,21.1,72.2,17.6,72.2,15.2z"/>
	<path fill="#4E4E4D" d="M86.9,21.1c-0.4,0.7-1.1,1.4-2.2,1.4c-1.8,0-2.1-1.3-1.6-2.9l-0.1,0c-0.7,1.4-1.9,3-4,3c-2,0-3-1.4-3-3.7
		c0-2.9,1.7-7,5.3-7c1.3,0,2.2,0.5,2.7,1.7l0.4-1.5c0.6,0,1.1,0,1.7-0.1c-0.5,2.7-1.2,6-1.6,8.6c-0.1,0.7,0,1.2,0.6,1.2
		c0.4,0,0.8-0.3,1.3-0.9L86.9,21.1z M83.5,15.2c0-1.9-0.8-2.7-2-2.7c-2.6,0-3.4,3.5-3.4,6.3c0,1.9,0.4,2.8,1.7,2.8
		C82,21.6,83.5,17.7,83.5,15.2z"/>
	<path fill="#4E4E4D" d="M92.5,21.1c-0.6,0.9-1.3,1.4-2.3,1.4c-1.3,0-1.9-0.7-1.9-1.9c0-0.8,0.3-2.3,0.8-5c0.4-2.1,1.2-6.5,1.7-9H89
		l0.1-0.6h3.6c-0.6,2.5-2.2,11.7-2.6,14.1c-0.2,0.9-0.2,1.6,0.5,1.6c0.5,0,0.9-0.3,1.4-1L92.5,21.1z"/>
	<path fill="#4E4E4D" d="M98.5,21.1c-0.6,0.9-1.3,1.4-2.2,1.4c-1.3,0-2-0.6-2-1.9c0-0.4,0.1-1.2,0.3-2.3c0.4-1.8,1-4.5,1.3-5.8h-1.7
		l0.1-0.6h3.6l-1.7,8.1c-0.3,1.2-0.1,1.6,0.6,1.6c0.5,0,0.8-0.3,1.3-1L98.5,21.1z M95.9,8.7c0-0.8,0.5-1.5,1.4-1.5
		c0.7,0,1.1,0.3,1.1,1.1c0,0.8-0.5,1.5-1.4,1.5C96.2,9.8,95.9,9.3,95.9,8.7z"/>
	<path fill="#4E4E4D" d="M105.4,20.7c-0.7,1-1.7,1.8-2.9,1.8c-1.6,0-2.4-0.9-2.4-2.2c0-0.8,0.2-1.5,0.4-2.8l1-5h-1.6L100,12h1.5
		l0.4-2.7l2-0.5l-0.5,3.2h2.3l-0.1,0.6h-2.2l-1.3,7.2c-0.2,1.3,0,1.9,0.9,1.9c0.8,0,1.3-0.5,2-1.3L105.4,20.7z"/>
	<path fill="#4E4E4D" d="M114.8,18.9c-0.6,2.3-2.4,3.6-4.7,3.6c-2.4,0-3.8-1.5-3.8-4.1c0-3.4,2.3-6.7,5.7-6.7c1.7,0,2.8,0.8,2.8,2.4
		c0,2.3-2.2,2.9-3.9,3.3c-0.7,0.2-1.9,0.3-2.5,0.3v0.6c0,2.3,0.7,3.3,2.3,3.3c1.2,0,2.7-0.6,3.5-3L114.8,18.9z M109.7,17.1
		c1.9-0.4,3.3-1.1,3.3-3.1c0-1.2-0.5-1.7-1.3-1.7c-1.3,0-2.8,1.6-3.2,4.9C108.9,17.2,109.3,17.2,109.7,17.1z M112.7,6.5l0.8-0.2
		c0.4-0.1,0.9,0.1,0.9,0.6c0,0.4-0.2,0.7-0.6,1l-2.8,2.6l-0.3-0.2L112.7,6.5z"/>
	<path fill="#4E4E4D" d="M117.5,20.4c-0.3,0.8,0.2,1.5,1.8,1.5c1.3,0,2.5-0.6,2.5-2.1c0-1-0.8-1.4-1.8-1.8c-1.3-0.5-2.9-0.9-2.9-2.9
		c0-2,2-3.2,4.2-3.2c2,0,3,0.8,3,2.1c0,0.9-0.4,1.6-1.4,1.6c-0.6,0-1.1-0.3-1.1-0.9c0-0.3,0.1-0.6,0.3-0.9h0.6
		c0.3-0.7-0.2-1.3-1.4-1.3c-1.4,0-2.6,0.7-2.6,2c0,0.9,0.9,1.3,1.9,1.8c1.4,0.6,3,1.2,3,3c0,1.9-1.9,3.3-4.3,3.3
		c-2.4,0-3.4-1.1-3.4-2.4c0-0.9,0.5-1.6,1.5-1.6c0.6,0,1.1,0.4,1.1,0.9c0,0.3-0.1,0.6-0.3,0.9H117.5z"/>
	<path fill="#4E4E4D" d="M143.3,15.5c-0.4,2.7-1.8,7-7.2,7c-3.1,0-5.3-1.5-5.3-3.9c0-2.7,2.1-3.9,4.3-4.6c-1.2-0.4-2.6-1.3-2.6-3.2
		c0-2.6,2.5-3.9,5.3-3.9c2.1,0,3.9,1,3.9,2.7c0,1-0.6,1.6-1.5,1.6c-1.2,0-1.4-1.2-0.9-1.9h0.8c0.4-0.8,0-1.9-1.9-1.9
		c-2.2,0-3.4,1.5-3.4,3.3c0,1.6,0.6,2.4,1.1,2.9c0.5-0.2,1.1-0.3,1.3-0.3c0.4,0,0.9,0.2,0.9,0.6c0,0.5-0.6,0.8-1.1,0.8
		c-0.6,0-1.1-0.2-1.3-0.5c-1.5,0.9-2.4,2.2-2.4,4.1c0,1.9,1.1,3.3,3.5,3.3c3.6,0,5.3-2.5,5.9-6l-2.6,0.4c-0.5,0.1-0.7,0.3-0.8,1
		l-0.4,0c0.1-1.5,0.4-2.4,1.5-2.6c1.1-0.2,4.5-0.6,5.4-0.8c0.4-0.1,0.6-0.3,0.7-1l0.5,0c0,1.7-0.6,2.4-1.4,2.5L143.3,15.5z"/>
	<path fill="#4E4E4D" d="M157.5,20.7c-0.7,1-1.7,1.8-2.9,1.8c-1.6,0-2.4-0.9-2.4-2.2c0-0.8,0.2-1.5,0.4-2.8l1-5h-1.6l0.1-0.6h1.5
		l0.4-2.7l2-0.5l-0.5,3.2h2.3l-0.1,0.6h-2.2l-1.3,7.2c-0.2,1.3,0,1.9,0.9,1.9c0.8,0,1.3-0.5,2-1.3L157.5,20.7z"/>
	<path fill="#4E4E4D" d="M167,18.9c-0.6,2.3-2.4,3.6-4.7,3.6c-2.4,0-3.8-1.5-3.8-4.1c0-3.4,2.3-6.7,5.7-6.7c1.7,0,2.8,0.8,2.8,2.4
		c0,2.3-2.2,2.9-3.9,3.3c-0.7,0.2-1.9,0.3-2.5,0.3v0.6c0,2.3,0.7,3.3,2.3,3.3c1.2,0,2.7-0.6,3.5-3L167,18.9z M161.9,17.1
		c1.9-0.4,3.3-1.1,3.3-3.1c0-1.2-0.5-1.7-1.3-1.7c-1.3,0-2.8,1.6-3.2,4.9C161,17.2,161.5,17.2,161.9,17.1z"/>
	<path fill="#4E4E4D" d="M169.4,18l0.8-5.5h-1.7l0.1-0.6h3.5l-0.9,4.1l0.1,0.1c1-2.2,2.1-4.4,4.2-4.4c1,0,1.8,0.5,1.8,1.5
		c0,1-0.7,1.4-1.5,1.4c-0.2,0-0.5,0-0.7-0.1l0-1.3c-0.2-0.1-0.4-0.2-0.6-0.2c-1.2,0-2.5,2.6-3.2,5.1c-0.3,1.2-0.5,2.3-0.7,3.9
		c-0.8,0-1.5,0.1-2.1,0.3L169.4,18z"/>
	<path fill="#4E4E4D" d="M179,18l0.8-5.5h-1.7l0.1-0.6h3.5l-0.9,4.1l0.1,0.1c1-2.2,2.1-4.4,4.2-4.4c1,0,1.8,0.5,1.8,1.5
		c0,1-0.7,1.4-1.5,1.4c-0.2,0-0.5,0-0.7-0.1l0-1.3c-0.2-0.1-0.4-0.2-0.6-0.2c-1.2,0-2.5,2.6-3.2,5.1c-0.3,1.2-0.5,2.3-0.7,3.9
		c-0.8,0-1.5,0.1-2.1,0.3L179,18z"/>
	<path fill="#4E4E4D" d="M192.3,21.1c-0.6,0.9-1.3,1.4-2.2,1.4c-1.3,0-2-0.6-2-1.9c0-0.4,0.1-1.2,0.3-2.3c0.4-1.8,1-4.5,1.3-5.8
		h-1.7L188,12h3.6l-1.7,8.1c-0.3,1.2-0.1,1.6,0.6,1.6c0.5,0,0.8-0.3,1.3-1L192.3,21.1z M189.7,8.7c0-0.8,0.5-1.5,1.4-1.5
		c0.7,0,1.1,0.3,1.1,1.1c0,0.8-0.5,1.5-1.4,1.5C190,9.8,189.7,9.3,189.7,8.7z"/>
	<path fill="#4E4E4D" d="M199.1,20.7c-0.7,1-1.7,1.8-2.9,1.8c-1.6,0-2.4-0.9-2.4-2.2c0-0.8,0.2-1.5,0.4-2.8l1-5h-1.6l0.1-0.6h1.5
		l0.4-2.7l2-0.5l-0.5,3.2h2.3l-0.1,0.6h-2.2l-1.3,7.2c-0.2,1.3,0,1.9,0.9,1.9c0.8,0,1.3-0.5,2-1.3L199.1,20.7z"/>
	<path fill="#4E4E4D" d="M200.1,18.4c0-3.2,1.9-6.7,5.8-6.7c2.7,0,3.9,1.6,3.9,4c0,3.1-1.9,6.7-5.7,6.7
		C201.3,22.5,200.1,20.9,200.1,18.4z M207.6,15.5c0-2-0.5-3.2-2.1-3.2c-2.7,0-3.4,3.7-3.4,6.5c0,1.9,0.6,3.1,2.1,3.1
		C207.1,21.9,207.6,18.1,207.6,15.5z"/>
	<path fill="#4E4E4D" d="M215.9,21.1c-0.6,0.9-1.3,1.4-2.2,1.4c-1.3,0-2-0.6-2-1.9c0-0.4,0.1-1.2,0.3-2.3c0.4-1.8,1-4.5,1.3-5.8
		h-1.7l0.1-0.6h3.6l-1.7,8.1c-0.3,1.2-0.1,1.6,0.6,1.6c0.5,0,0.8-0.3,1.3-1L215.9,21.1z M213.3,8.7c0-0.8,0.5-1.5,1.4-1.5
		c0.7,0,1.1,0.3,1.1,1.1c0,0.8-0.5,1.5-1.4,1.5C213.6,9.8,213.3,9.3,213.3,8.7z"/>
	<path fill="#4E4E4D" d="M218.3,18l0.8-5.5h-1.7l0.1-0.6h3.5l-0.9,4.1l0.1,0.1c1-2.2,2.1-4.4,4.2-4.4c1,0,1.8,0.5,1.8,1.5
		c0,1-0.7,1.4-1.5,1.4c-0.2,0-0.5,0-0.7-0.1l0-1.3c-0.2-0.1-0.4-0.2-0.6-0.2c-1.2,0-2.5,2.6-3.2,5.1c-0.3,1.2-0.5,2.3-0.7,3.9
		c-0.8,0-1.5,0.1-2.1,0.3L218.3,18z"/>
	<path fill="#4E4E4D" d="M234.6,18.9c-0.6,2.3-2.4,3.6-4.7,3.6c-2.4,0-3.8-1.5-3.8-4.1c0-3.4,2.3-6.7,5.7-6.7c1.7,0,2.8,0.8,2.8,2.4
		c0,2.3-2.2,2.9-3.9,3.3c-0.7,0.2-1.9,0.3-2.5,0.3v0.6c0,2.3,0.7,3.3,2.3,3.3c1.2,0,2.7-0.6,3.5-3L234.6,18.9z M229.5,17.1
		c1.9-0.4,3.3-1.1,3.3-3.1c0-1.2-0.5-1.7-1.3-1.7c-1.3,0-2.8,1.6-3.2,4.9C228.6,17.2,229,17.2,229.5,17.1z"/>
	<path fill="#4E4E4D" d="M237.2,20.4c-0.3,0.8,0.2,1.5,1.8,1.5c1.3,0,2.5-0.6,2.5-2.1c0-1-0.8-1.4-1.8-1.8c-1.3-0.5-2.9-0.9-2.9-2.9
		c0-2,2-3.2,4.2-3.2c2,0,3,0.8,3,2.1c0,0.9-0.4,1.6-1.4,1.6c-0.6,0-1.1-0.3-1.1-0.9c0-0.3,0.1-0.6,0.3-0.9h0.6
		c0.3-0.7-0.2-1.3-1.4-1.3c-1.4,0-2.6,0.7-2.6,2c0,0.9,0.9,1.3,1.9,1.8c1.4,0.6,3,1.2,3,3c0,1.9-1.9,3.3-4.3,3.3
		c-2.4,0-3.4-1.1-3.4-2.4c0-0.9,0.5-1.6,1.5-1.6c0.6,0,1.1,0.4,1.1,0.9c0,0.3-0.1,0.6-0.3,0.9H237.2z"/>
</g>
</svg>
